HIERARCHY
ROOT root
{
	OFFSET	0	13.1	24.9
	CHANNELS 6  Xposition Yposition Zposition Xrotation Yrotation Zrotation
	JOINT spine_1
	{
		OFFSET	0	9.99999	0
		CHANNELS 3  Xrotation Yrotation Zrotation
		JOINT spine_2
		{
			OFFSET	0	112	-10
			CHANNELS 3  Xrotation Yrotation Zrotation
			JOINT spine_3
			{
				OFFSET	0	206.5	19.3
				CHANNELS 3  Xrotation Yrotation Zrotation
				JOINT spine_4
				{
					OFFSET	0	110.4	14.6
					CHANNELS 3  Xrotation Yrotation Zrotation
					JOINT neck_1
					{
						OFFSET	0	71.8	-50.3
						CHANNELS 3  Xrotation Yrotation Zrotation
						JOINT neck_2
						{
							OFFSET	0	86.2	-25.8
							CHANNELS 3  Xrotation Yrotation Zrotation
							JOINT head_ee
							{
								OFFSET	0	179.8	-8.7
								CHANNELS 3  Xrotation Yrotation Zrotation
								End Site
								{
									OFFSET	1	0	0
								}
							}
						}
					}
					JOINT left_clavicle
					{
						OFFSET	-43.2	22.4	-70.8
						CHANNELS 3  Xrotation Yrotation Zrotation
						JOINT left_shoulder
						{
							OFFSET	-93.9	-5.79999	48.7
							CHANNELS 3  Xrotation Yrotation Zrotation
							JOINT left_elbow
							{
								OFFSET	-291.4	-30.8	15.2
								CHANNELS 3  Xrotation Yrotation Zrotation
								JOINT left_lowarm_twist
								{
									OFFSET	-110.7	-3.89999	13.6
									CHANNELS 3  Xrotation Yrotation Zrotation
									JOINT left_hand
									{
										OFFSET	-110.7	-3.89999	13.6
										CHANNELS 3  Xrotation Yrotation Zrotation
										JOINT left_ee
										{
											OFFSET	-80.8	-5.10001	12.1
											CHANNELS 3  Xrotation Yrotation Zrotation
											End Site
											{
												OFFSET	1	0	0
											}
										}
									}
								}
							}
						}
					}
					JOINT right_clavicle
					{
						OFFSET	43.2	22.4	-70.8
						CHANNELS 3  Xrotation Yrotation Zrotation
						JOINT right_shoulder
						{
							OFFSET	93.9	-5.79999	48.7
							CHANNELS 3  Xrotation Yrotation Zrotation
							JOINT right_elbow
							{
								OFFSET	291.4	-30.8	15.2
								CHANNELS 3  Xrotation Yrotation Zrotation
								JOINT right_lowarm_twist
								{
									OFFSET	110.7	-3.89999	13.6
									CHANNELS 3  Xrotation Yrotation Zrotation
									JOINT right_hand
									{
										OFFSET	110.7	-3.89999	13.6
										CHANNELS 3  Xrotation Yrotation Zrotation
										JOINT right_ee
										{
											OFFSET	80.8	-5.10001	12.1
											CHANNELS 3  Xrotation Yrotation Zrotation
											End Site
											{
												OFFSET	1	0	0
											}
										}
									}
								}
							}
						}
					}
				}
			}
		}
	}
	JOINT left_hip
	{
		OFFSET	-82.8	-127.5	0.300001
		CHANNELS 3  Xrotation Yrotation Zrotation
		JOINT left_knee
		{
			OFFSET	-28.2	-396.7	2.2
			CHANNELS 3  Xrotation Yrotation Zrotation
			JOINT left_ankle
			{
				OFFSET	-11.7	-411.3	35.4
				CHANNELS 3  Xrotation Yrotation Zrotation
				JOINT left_toes
				{
					OFFSET	0	-60	-88.6
					CHANNELS 3  Xrotation Yrotation Zrotation
					JOINT left_foot_ee
					{
						OFFSET	-22.5	-16.5	-42.2
						CHANNELS 3  Xrotation Yrotation Zrotation
						End Site
						{
							OFFSET	1	0	0
						}
					}
				}
			}
		}
	}
	JOINT right_hip
	{
		OFFSET	82.8	-127.5	0.300001
		CHANNELS 3  Xrotation Yrotation Zrotation
		JOINT right_knee
		{
			OFFSET	28.2	-396.7	2.2
			CHANNELS 3  Xrotation Yrotation Zrotation
			JOINT right_ankle
			{
				OFFSET	11.7	-411.3	35.4
				CHANNELS 3  Xrotation Yrotation Zrotation
				JOINT right_toes
				{
					OFFSET	0	-60	-88.6
					CHANNELS 3  Xrotation Yrotation Zrotation
					JOINT right_foot_ee
					{
						OFFSET	22.5	-16.5	-42.2
						CHANNELS 3  Xrotation Yrotation Zrotation
						End Site
						{
							OFFSET	1	0	0
						}
					}
				}
			}
		}
	}
}
MOTION
Frames: 13
Frame Time: 0.02
391.555 721.904 -1204.45 -125.259186045 -87.2191906684 -126.405440124 -2.44928 -0.179568 0.03871 -2.4493 -0.181668 0.0272051 -2.44941 -0.182665 -0.0194092 -2.44936 -0.183438 0.00968303 -6.28638 3.01028 3.94404 -6.2451 2.6789 4.54419 -0.0 0.0 -0.0 8.82853 -25.8256 16.2741 -4.00995 16.6944 66.9575 0.993907 -26.2129 0.231413 10.2587 0.246938 -1.28545 3.25592 -4.29255 20.5498 -0.0 0.0 -0.0 8.67929 -9.69506 -16.4404 -6.14447 11.4232 -57.831 0.704788 19.2457 -0.119497 1.57879 -0.0529456 0.194687 3.54947 3.61496 -22.9699 0.0 0.0 0.0 7.28456 3.19284 1.71009 -14.6426 0.320975 2.21806 16.9527 -5.66648 -2.40801 -13.3163 0.0 0.0 -0.0 0.0 -0.0 -3.74097 5.82314 -2.00535 2.13294 0.0936922 0.313865 -20.6291 -28.5201 -3.29729 -37.0221 0.0 0.0 0.0 0.0 0.0 
420.423758407 716.859 -1210.04334042 -172.190347847 -74.7679773938 -174.140013328 -1.82858 0.132437 1.286 -1.82766 0.0503436 1.29182 -1.82565 -0.26279 1.26582 -1.82788 -0.0595972 1.29143 -1.91751 4.70389 1.60591 -1.88917 7.21654 2.30268 -0.0 0.0 -0.0 7.96362 -26.532 14.2892 -9.24724 13.1509 65.1513 0.98429 -25.9928 0.227182 15.5777 0.283487 -1.9636 2.40855 -8.20027 12.8859 -0.0 0.0 -0.0 8.30687 -8.22458 -15.8563 -9.86611 17.9009 -60.0546 1.01394 26.6686 -0.240332 -0.700335 0.0252018 -0.0858864 2.00206 -1.68599 -14.1682 0.0 0.0 0.0 4.01547 7.29229 3.73279 -14.4907 0.320573 2.19475 23.177 -4.5209 -3.17857 -11.621 0.0 0.0 -0.0 0.0 -0.0 -4.1158 5.04744 -0.155379 0.242583 0.010065 0.0358656 -18.638 -28.9371 -2.98438 -35.9096 0.0 0.0 0.0 0.0 0.0 
438.391014027 713.801 -1210.02748322 178.652530312 -72.8058062779 177.172677401 -2.00686 -0.0326412 1.43148 -2.00573 -0.123655 1.42651 -2.00789 -0.468505 1.35305 -2.01036 -0.248958 1.41005 -2.66398 5.71105 -1.58892 -2.58628 11.6016 -0.861932 -0.0 0.0 -0.0 8.21964 -28.0443 14.688 -12.7316 7.18935 64.3435 1.11966 -29.0139 0.289717 15.8508 0.283663 -1.99849 2.49012 -7.36968 13.8133 -0.0 0.0 -0.0 8.37014 -7.28654 -16.0319 -12.6318 21.5381 -60.6762 1.01939 26.7921 -0.242785 3.454 -0.108827 0.427687 1.03625 -0.280212 -7.05182 0.0 0.0 0.0 -1.38798 7.92923 4.64918 -9.35557 0.270687 1.40868 28.7981 -3.64344 -3.81482 -14.7289 0.0 0.0 -0.0 0.0 -0.0 -2.20662 -1.13902 1.23448 -9.93897 -0.2799 -1.49773 -21.3506 -28.7037 -3.41735 -33.9914 0.0 0.0 0.0 0.0 0.0 
438.512887644 713.801 -1208.8859122 178.750434892 -71.4115322258 177.275549535 -2.00686 -0.0326412 1.43148 -2.00573 -0.123655 1.42651 -2.00789 -0.468505 1.35305 -2.01036 -0.248958 1.41005 -2.66398 5.71105 -1.58892 -2.58628 11.6016 -0.861932 -0.0 0.0 -0.0 8.21964 -28.0443 14.688 -12.7316 7.18935 64.3435 1.11966 -29.0139 0.289717 15.8508 0.283663 -1.99849 2.49012 -7.36968 13.8133 -0.0 0.0 -0.0 8.37014 -7.28654 -16.0319 -12.6318 21.5381 -60.6762 1.01939 26.7921 -0.242785 3.454 -0.108827 0.427687 1.03625 -0.280212 -7.05182 0.0 0.0 0.0 -1.38798 7.92923 4.64918 -9.35557 0.270687 1.40868 28.7981 -3.64344 -3.81482 -14.7289 0.0 0.0 -0.0 0.0 -0.0 -2.20662 -1.13902 1.23448 -9.93897 -0.2799 -1.49773 -21.3506 -28.7037 -3.41735 -33.9914 0.0 0.0 0.0 0.0 0.0 
438.5759524 713.801 -1208.15817535 178.805300412 -70.524397696 177.333585886 -2.00686 -0.0326412 1.43148 -2.00573 -0.123655 1.42651 -2.00789 -0.468505 1.35305 -2.01036 -0.248958 1.41005 -2.66398 5.71105 -1.58892 -2.58628 11.6016 -0.861932 -0.0 0.0 -0.0 8.21964 -28.0443 14.688 -12.7316 7.18935 64.3435 1.11966 -29.0139 0.289717 15.8508 0.283663 -1.99849 2.49012 -7.36968 13.8133 -0.0 0.0 -0.0 8.37014 -7.28654 -16.0319 -12.6318 21.5381 -60.6762 1.01939 26.7921 -0.242785 3.454 -0.108827 0.427687 1.03625 -0.280212 -7.05182 0.0 0.0 0.0 -1.38798 7.92923 4.64918 -9.35557 0.270687 1.40868 28.7981 -3.64344 -3.81482 -14.7289 0.0 0.0 -0.0 0.0 -0.0 -2.20662 -1.13902 1.23448 -9.93897 -0.2799 -1.49773 -21.3506 -28.7037 -3.41735 -33.9914 0.0 0.0 0.0 0.0 0.0 
438.591721285 713.801 -1207.95248194 178.819883571 -70.2738532393 177.349066049 -2.00686 -0.0326412 1.43148 -2.00573 -0.123655 1.42651 -2.00789 -0.468505 1.35305 -2.01036 -0.248958 1.41005 -2.66398 5.71105 -1.58892 -2.58628 11.6016 -0.861932 -0.0 0.0 -0.0 8.21964 -28.0443 14.688 -12.7316 7.18935 64.3435 1.11966 -29.0139 0.289717 15.8508 0.283663 -1.99849 2.49012 -7.36968 13.8133 -0.0 0.0 -0.0 8.37014 -7.28654 -16.0319 -12.6318 21.5381 -60.6762 1.01939 26.7921 -0.242785 3.454 -0.108827 0.427687 1.03625 -0.280212 -7.05182 0.0 0.0 0.0 -1.38798 7.92923 4.64918 -9.35557 0.270687 1.40868 28.7981 -3.64344 -3.81482 -14.7289 0.0 0.0 -0.0 0.0 -0.0 -2.20662 -1.13902 1.23448 -9.93897 -0.2799 -1.49773 -21.3506 -28.7037 -3.41735 -33.9914 0.0 0.0 0.0 0.0 0.0 
438.615718187 713.801 -1207.61375294 178.843081088 -69.8614377079 177.373741586 -2.00686 -0.0326412 1.43148 -2.00573 -0.123655 1.42651 -2.00789 -0.468505 1.35305 -2.01036 -0.248958 1.41005 -2.66398 5.71105 -1.58892 -2.58628 11.6016 -0.861932 -0.0 0.0 -0.0 8.21964 -28.0443 14.688 -12.7316 7.18935 64.3435 1.11966 -29.0139 0.289717 15.8508 0.283663 -1.99849 2.49012 -7.36968 13.8133 -0.0 0.0 -0.0 8.37014 -7.28654 -16.0319 -12.6318 21.5381 -60.6762 1.01939 26.7921 -0.242785 3.454 -0.108827 0.427687 1.03625 -0.280212 -7.05182 0.0 0.0 0.0 -1.38798 7.92923 4.64918 -9.35557 0.270687 1.40868 28.7981 -3.64344 -3.81482 -14.7289 0.0 0.0 -0.0 0.0 -0.0 -2.20662 -1.13902 1.23448 -9.93897 -0.2799 -1.49773 -21.3506 -28.7037 -3.41735 -33.9914 0.0 0.0 0.0 0.0 0.0 
438.614313119 713.801 -1207.6345844 178.841682866 -69.8867949221 177.372252434 -2.00686 -0.0326412 1.43148 -2.00573 -0.123655 1.42651 -2.00789 -0.468505 1.35305 -2.01036 -0.248958 1.41005 -2.66398 5.71105 -1.58892 -2.58628 11.6016 -0.861932 -0.0 0.0 -0.0 8.21964 -28.0443 14.688 -12.7316 7.18935 64.3435 1.11966 -29.0139 0.289717 15.8508 0.283663 -1.99849 2.49012 -7.36968 13.8133 -0.0 0.0 -0.0 8.37014 -7.28654 -16.0319 -12.6318 21.5381 -60.6762 1.01939 26.7921 -0.242785 3.454 -0.108827 0.427687 1.03625 -0.280212 -7.05182 0.0 0.0 0.0 -1.38798 7.92923 4.64918 -9.35557 0.270687 1.40868 28.7981 -3.64344 -3.81482 -14.7289 0.0 0.0 -0.0 0.0 -0.0 -2.20662 -1.13902 1.23448 -9.93897 -0.2799 -1.49773 -21.3506 -28.7037 -3.41735 -33.9914 0.0 0.0 0.0 0.0 0.0 
438.615881564 713.801 -1207.61132178 178.843244032 -69.8584784156 177.373915142 -2.00686 -0.0326412 1.43148 -2.00573 -0.123655 1.42651 -2.00789 -0.468505 1.35305 -2.01036 -0.248958 1.41005 -2.66398 5.71105 -1.58892 -2.58628 11.6016 -0.861932 -0.0 0.0 -0.0 8.21964 -28.0443 14.688 -12.7316 7.18935 64.3435 1.11966 -29.0139 0.289717 15.8508 0.283663 -1.99849 2.49012 -7.36968 13.8133 -0.0 0.0 -0.0 8.37014 -7.28654 -16.0319 -12.6318 21.5381 -60.6762 1.01939 26.7921 -0.242785 3.454 -0.108827 0.427687 1.03625 -0.280212 -7.05182 0.0 0.0 0.0 -1.38798 7.92923 4.64918 -9.35557 0.270687 1.40868 28.7981 -3.64344 -3.81482 -14.7289 0.0 0.0 -0.0 0.0 -0.0 -2.20662 -1.13902 1.23448 -9.93897 -0.2799 -1.49773 -21.3506 -28.7037 -3.41735 -33.9914 0.0 0.0 0.0 0.0 0.0 
438.635906492 713.801 -1207.29759072 178.863863501 -69.476675565 177.395904606 -2.00686 -0.0326412 1.43148 -2.00573 -0.123655 1.42651 -2.00789 -0.468505 1.35305 -2.01036 -0.248958 1.41005 -2.66398 5.71105 -1.58892 -2.58628 11.6016 -0.861932 -0.0 0.0 -0.0 8.21964 -28.0443 14.688 -12.7316 7.18935 64.3435 1.11966 -29.0139 0.289717 15.8508 0.283663 -1.99849 2.49012 -7.36968 13.8133 -0.0 0.0 -0.0 8.37014 -7.28654 -16.0319 -12.6318 21.5381 -60.6762 1.01939 26.7921 -0.242785 3.454 -0.108827 0.427687 1.03625 -0.280212 -7.05182 0.0 0.0 0.0 -1.38798 7.92923 4.64918 -9.35557 0.270687 1.40868 28.7981 -3.64344 -3.81482 -14.7289 0.0 0.0 -0.0 0.0 -0.0 -2.20662 -1.13902 1.23448 -9.93897 -0.2799 -1.49773 -21.3506 -28.7037 -3.41735 -33.9914 0.0 0.0 0.0 0.0 0.0 
438.612008684 713.801 -1207.66845657 178.839401536 -69.9280276274 177.369823261 -2.00686 -0.0326412 1.43148 -2.00573 -0.123655 1.42651 -2.00789 -0.468505 1.35305 -2.01036 -0.248958 1.41005 -2.66398 5.71105 -1.58892 -2.58628 11.6016 -0.861932 -0.0 0.0 -0.0 8.21964 -28.0443 14.688 -12.7316 7.18935 64.3435 1.11966 -29.0139 0.289717 15.8508 0.283663 -1.99849 2.49012 -7.36968 13.8133 -0.0 0.0 -0.0 8.37014 -7.28654 -16.0319 -12.6318 21.5381 -60.6762 1.01939 26.7921 -0.242785 3.454 -0.108827 0.427687 1.03625 -0.280212 -7.05182 0.0 0.0 0.0 -1.38798 7.92923 4.64918 -9.35557 0.270687 1.40868 28.7981 -3.64344 -3.81482 -14.7289 0.0 0.0 -0.0 0.0 -0.0 -2.20662 -1.13902 1.23448 -9.93897 -0.2799 -1.49773 -21.3506 -28.7037 -3.41735 -33.9914 0.0 0.0 0.0 0.0 0.0 
438.61446432 713.801 -1207.63234927 178.841833064 -69.8840741622 177.372412388 -2.00686 -0.0326412 1.43148 -2.00573 -0.123655 1.42651 -2.00789 -0.468505 1.35305 -2.01036 -0.248958 1.41005 -2.66398 5.71105 -1.58892 -2.58628 11.6016 -0.861932 -0.0 0.0 -0.0 8.21964 -28.0443 14.688 -12.7316 7.18935 64.3435 1.11966 -29.0139 0.289717 15.8508 0.283663 -1.99849 2.49012 -7.36968 13.8133 -0.0 0.0 -0.0 8.37014 -7.28654 -16.0319 -12.6318 21.5381 -60.6762 1.01939 26.7921 -0.242785 3.454 -0.108827 0.427687 1.03625 -0.280212 -7.05182 0.0 0.0 0.0 -1.38798 7.92923 4.64918 -9.35557 0.270687 1.40868 28.7981 -3.64344 -3.81482 -14.7289 0.0 0.0 -0.0 0.0 -0.0 -2.20662 -1.13902 1.23448 -9.93897 -0.2799 -1.49773 -21.3506 -28.7037 -3.41735 -33.9914 0.0 0.0 0.0 0.0 0.0 
438.607435423 713.801 -1207.73463846 178.834916005 -70.008596819 177.365048899 -2.00686 -0.0326412 1.43148 -2.00573 -0.123655 1.42651 -2.00789 -0.468505 1.35305 -2.01036 -0.248958 1.41005 -2.66398 5.71105 -1.58892 -2.58628 11.6016 -0.861932 -0.0 0.0 -0.0 8.21964 -28.0443 14.688 -12.7316 7.18935 64.3435 1.11966 -29.0139 0.289717 15.8508 0.283663 -1.99849 2.49012 -7.36968 13.8133 -0.0 0.0 -0.0 8.37014 -7.28654 -16.0319 -12.6318 21.5381 -60.6762 1.01939 26.7921 -0.242785 3.454 -0.108827 0.427687 1.03625 -0.280212 -7.05182 0.0 0.0 0.0 -1.38798 7.92923 4.64918 -9.35557 0.270687 1.40868 28.7981 -3.64344 -3.81482 -14.7289 0.0 0.0 -0.0 0.0 -0.0 -2.20662 -1.13902 1.23448 -9.93897 -0.2799 -1.49773 -21.3506 -28.7037 -3.41735 -33.9914 0.0 0.0 0.0 0.0 0.0 
